<?xml version="1.0" encoding="UTF-8" standalone="no"?><!DOCTYPE svg PUBLIC "-//W3C//DTD SVG 1.1//EN" "http://www.w3.org/Graphics/SVG/1.1/DTD/svg11.dtd"><svg width="100%" height="100%" viewBox="0 0 16 16" version="1.1" xmlns="http://www.w3.org/2000/svg" xmlns:xlink="http://www.w3.org/1999/xlink" xml:space="preserve" xmlns:serif="http://www.serif.com/" style="fill-rule:evenodd;clip-rule:evenodd;stroke-linejoin:round;stroke-miterlimit:2;"><g id="Solid"><path id="folder-dup-solid-square" d="M1.253,12.64C1.262,12.158 1.249,4 1.253,3.614C1.256,3.371 1.425,3.109 1.768,3.113C1.965,3.115 8,3.113 8,3.113L9.343,4.667C9.343,4.667 13.999,4.631 14.516,4.636C14.763,4.639 14.975,4.813 14.972,5.123C14.969,5.433 14.973,12.203 14.973,12.709C14.973,13.059 14.738,13.295 14.489,13.3C14.028,13.308 2.6,13.29 2.037,13.3C1.512,13.309 1.245,13.104 1.253,12.64ZM9.21,8.334L9.21,9.49L12.21,7.82L9.21,6.149L9.21,7.168C8.473,7.179 7.466,7.315 6.506,7.838C4.606,8.874 4.453,11.179 4.453,11.179L4.417,11.764L5.586,11.837L5.622,11.252C5.622,11.252 5.715,9.603 7.067,8.866C7.827,8.451 8.626,8.343 9.21,8.334Z" style="fill:white;"/></g></svg>