<?xml version="1.0" encoding="UTF-8" standalone="no"?><!DOCTYPE svg PUBLIC "-//W3C//DTD SVG 1.1//EN" "http://www.w3.org/Graphics/SVG/1.1/DTD/svg11.dtd"><svg width="100%" height="100%" viewBox="0 0 16 16" version="1.1" xmlns="http://www.w3.org/2000/svg" xmlns:xlink="http://www.w3.org/1999/xlink" xml:space="preserve" xmlns:serif="http://www.serif.com/" style="fill-rule:evenodd;clip-rule:evenodd;stroke-linecap:square;stroke-linejoin:round;stroke-miterlimit:1.5;"><g id="Line"><g id="folder-closed-square" transform="matrix(1.69464,0,0,1.83794,-1.97862,-2.71528)"><path d="M6.643,2.398L1.913,2.398L1.913,8.981L9.998,8.981L9.998,2.398L9.998,3.506L6.643,3.506L6.643,2.398ZM9.408,4.05L9.408,8.437C9.408,8.437 2.503,8.437 2.503,8.437C2.503,8.437 2.503,2.942 2.503,2.942L6.053,2.942L6.053,4.05L9.408,4.05Z" style="fill:white;"/></g><g id="duplicated" transform="matrix(1,0,0,1,0.268418,-0.778504)"><g id="line-square" serif:id="line square" transform="matrix(1.17306,0,0,1.87384,-1.07555,-6.60599)"><path d="M5.377,9.356C5.377,9.356 5.466,8.454 6.65,8.05C7.833,7.646 8.847,7.796 8.847,7.796" style="fill:none;stroke:white;stroke-width:0.64px;"/></g><g transform="matrix(3.48674e-16,2.52795,-2.5284,3.48736e-16,32.7986,-7.18935)"><path d="M6.018,8.527L6.531,9.448L5.505,9.448L6.018,8.527Z" style="fill:white;stroke:white;stroke-width:0.08px;stroke-linecap:round;"/></g></g></g></svg>