<?xml version="1.0" encoding="UTF-8" standalone="no"?><!DOCTYPE svg PUBLIC "-//W3C//DTD SVG 1.1//EN" "http://www.w3.org/Graphics/SVG/1.1/DTD/svg11.dtd"><svg width="100%" height="100%" viewBox="0 0 16 16" version="1.1" xmlns="http://www.w3.org/2000/svg" xmlns:xlink="http://www.w3.org/1999/xlink" xml:space="preserve" xmlns:serif="http://www.serif.com/" style="fill-rule:evenodd;clip-rule:evenodd;stroke-linejoin:round;stroke-miterlimit:2;"><g id="Solid"><path id="folder-dup-solid" d="M1.319,3.47L1.319,11.252C1.319,12.679 2.459,13.837 3.862,13.837L12.47,13.837C13.874,13.837 15.013,12.679 15.013,11.252L15.013,5.664C15.013,4.687 14.233,3.895 13.272,3.895L8.909,3.895L8.909,3.47C8.909,2.494 8.129,1.701 7.168,1.701L3.06,1.701C2.099,1.701 1.319,2.494 1.319,3.47ZM9.179,6.65C8.878,6.647 7.617,6.683 6.471,7.445C5.369,8.177 5.069,9.528 4.988,10.208C4.978,10.313 5.011,10.418 5.08,10.499C5.149,10.58 5.248,10.629 5.354,10.635C5.425,10.648 5.499,10.653 5.57,10.657C5.786,10.669 5.972,10.507 5.99,10.291C6.03,9.772 6.223,8.862 6.937,8.345C7.797,7.723 8.846,7.654 9.179,7.649L9.179,8.543L11.509,7.246L9.179,5.949L9.179,6.65Z" style="fill:white;"/></g></svg>