<?xml version="1.0" encoding="UTF-8" standalone="no"?><!DOCTYPE svg PUBLIC "-//W3C//DTD SVG 1.1//EN" "http://www.w3.org/Graphics/SVG/1.1/DTD/svg11.dtd"><svg width="100%" height="100%" viewBox="0 0 16 16" version="1.1" xmlns="http://www.w3.org/2000/svg" xmlns:xlink="http://www.w3.org/1999/xlink" xml:space="preserve" xmlns:serif="http://www.serif.com/" style="fill-rule:evenodd;clip-rule:evenodd;stroke-linejoin:round;stroke-miterlimit:2;"><g id="Outline"><path id="folder-opened" d="M1.893,13.29C1.771,13.274 1.589,13.231 1.46,13.119C1.224,12.913 1.255,12.57 1.255,12.57L1.255,5.422L2.255,4.422L2.255,12.3L11.919,12.3L13.827,12.3L14.89,7.131L13.972,7.131L13.972,4.994L7.437,4.994C7.133,4.994 6.845,4.856 6.655,4.618L6.1,3.922C5.96,3.748 5.797,3.573 5.727,3.499L5.617,3.497C4.832,3.495 3.15,3.495 2.255,3.497L2.255,3.994L1.255,4.994L1.255,3.244C1.255,3.244 1.25,2.5 2.087,2.497C2.924,2.495 4.782,2.495 5.619,2.497C6.118,2.499 6.25,2.508 6.881,3.298L7.437,3.994L14.234,3.994C14.649,3.994 14.972,4.091 14.972,4.804L14.972,6.131L15.381,6.131C15.787,6.131 16.049,6.461 15.965,6.868L14.972,11.694L14.972,12.421C14.972,12.421 14.987,12.826 14.839,13.024C14.739,13.158 14.585,13.227 14.45,13.263C14.286,13.406 14.077,13.495 13.865,13.495L2.361,13.495C2.163,13.495 2,13.417 1.893,13.29ZM1.255,5.422L1.255,4.994L2.255,4.006L2.255,4.412L1.255,5.422Z" style="fill:white;"/><g id="folder-opened-top" serif:id="folder-opened top" transform="matrix(0.952706,0,-0.181532,0.882163,2.97272,1.27288)"><path d="M14.846,6.342L14.846,13.02C14.846,13.481 14.5,13.855 14.073,13.855L1.998,13.855C1.571,13.855 1.225,13.481 1.225,13.02L1.225,6.342C1.225,5.881 1.571,5.507 1.998,5.507L14.073,5.507C14.5,5.507 14.846,5.881 14.846,6.342ZM2.296,12.721L13.774,12.721L13.774,6.641L2.296,6.641L2.296,12.721Z" style="fill:white;"/></g></g></svg>