<?xml version="1.0" encoding="UTF-8" standalone="no"?><!DOCTYPE svg PUBLIC "-//W3C//DTD SVG 1.1//EN" "http://www.w3.org/Graphics/SVG/1.1/DTD/svg11.dtd"><svg width="100%" height="100%" viewBox="0 0 16 16" version="1.1" xmlns="http://www.w3.org/2000/svg" xmlns:xlink="http://www.w3.org/1999/xlink" xml:space="preserve" xmlns:serif="http://www.serif.com/" style="fill-rule:evenodd;clip-rule:evenodd;stroke-linejoin:round;stroke-miterlimit:2;"><g id="Solid"><path id="folder-dup-solid" d="M1.255,12.57L1.255,3.244C1.255,3.244 1.25,2.5 2.087,2.497C2.924,2.495 4.782,2.495 5.619,2.497C6.118,2.499 6.25,2.508 6.881,3.298L7.437,3.994L14.234,3.994C14.649,3.994 14.972,4.091 14.972,4.804L14.972,12.421C14.972,12.421 14.987,12.826 14.839,13.024C14.622,13.314 14.159,13.3 14.159,13.3L2.026,13.3C2.026,13.3 1.672,13.303 1.46,13.119C1.224,12.913 1.255,12.57 1.255,12.57ZM9.201,7.581L9.201,8.737L12.201,7.067L9.201,5.396L9.201,6.417C8.442,6.434 7.431,6.576 6.498,7.085C4.598,8.12 4.445,10.426 4.445,10.426C4.425,10.749 4.67,11.027 4.993,11.047C5.315,11.067 5.593,10.821 5.614,10.499C5.614,10.499 5.707,8.849 7.058,8.113C7.796,7.71 8.596,7.596 9.201,7.581Z" style="fill:white;"/></g></svg>