<?xml version="1.0" encoding="UTF-8" standalone="no"?><!DOCTYPE svg PUBLIC "-//W3C//DTD SVG 1.1//EN" "http://www.w3.org/Graphics/SVG/1.1/DTD/svg11.dtd"><svg width="100%" height="100%" viewBox="0 0 16 16" version="1.1" xmlns="http://www.w3.org/2000/svg" xmlns:xlink="http://www.w3.org/1999/xlink" xml:space="preserve" xmlns:serif="http://www.serif.com/" style="fill-rule:evenodd;clip-rule:evenodd;stroke-linejoin:round;stroke-miterlimit:2;"><g id="Outline"><path id="folder-closed-square" d="M1.253,12.64C1.262,12.158 1.249,4 1.253,3.614C1.256,3.371 1.425,3.109 1.768,3.113C1.965,3.115 8,3.113 8,3.113L9.343,4.667C9.343,4.667 13.999,4.631 14.516,4.636C14.763,4.639 14.975,4.813 14.972,5.123C14.969,5.433 14.973,12.203 14.973,12.709C14.973,13.059 14.738,13.295 14.489,13.3C14.028,13.308 2.6,13.29 2.037,13.3C1.512,13.309 1.245,13.104 1.253,12.64ZM2.252,4.114C2.252,5.743 2.258,10.857 2.255,12.298C3.798,12.293 11.851,12.304 13.973,12.302C13.972,10.987 13.97,7.071 13.971,5.637C12.613,5.642 9.35,5.667 9.35,5.667C9.057,5.669 8.778,5.542 8.586,5.321L7.543,4.113L2.252,4.114Z" style="fill:white;"/></g></svg>