<?xml version="1.0" encoding="UTF-8" standalone="no"?><!DOCTYPE svg PUBLIC "-//W3C//DTD SVG 1.1//EN" "http://www.w3.org/Graphics/SVG/1.1/DTD/svg11.dtd"><svg width="100%" height="100%" viewBox="0 0 16 16" version="1.1" xmlns="http://www.w3.org/2000/svg" xmlns:xlink="http://www.w3.org/1999/xlink" xml:space="preserve" xmlns:serif="http://www.serif.com/" style="fill-rule:evenodd;clip-rule:evenodd;stroke-linejoin:round;stroke-miterlimit:2;"><g id="Line"><path id="folder-opened-square" d="M14.964,13.757L14.985,13.757L16.003,6.131L14.964,6.131L14.964,1.692L14.964,3.728L9.279,3.728L9.279,1.692L1.264,1.692L1.264,13.792L14.964,13.792L14.964,13.757ZM13.964,4.728L13.964,7.131L14.861,7.131L14.105,12.792L2.264,12.792C2.264,12.792 2.264,2.692 2.264,2.692C2.264,2.692 8.279,2.692 8.279,2.692C8.279,2.692 8.279,4.728 8.279,4.728L13.964,4.728Z" style="fill:white;"/><g id="folder-opened-square-top" serif:id="folder-opened-square top" transform="matrix(0.981585,0,-0.121934,0.913555,2.10184,1.09999)"><path d="M14.846,5.507L1.225,5.507L1.225,13.855L14.846,13.855L14.846,5.507ZM13.818,6.602L13.818,12.76C13.818,12.76 2.252,12.76 2.252,12.76C2.252,12.76 2.252,6.602 2.252,6.602L13.818,6.602Z" style="fill:white;"/></g></g></svg>