<?xml version="1.0" encoding="UTF-8" standalone="no"?><!DOCTYPE svg PUBLIC "-//W3C//DTD SVG 1.1//EN" "http://www.w3.org/Graphics/SVG/1.1/DTD/svg11.dtd"><svg width="100%" height="100%" viewBox="0 0 16 16" version="1.1" xmlns="http://www.w3.org/2000/svg" xmlns:xlink="http://www.w3.org/1999/xlink" xml:space="preserve" xmlns:serif="http://www.serif.com/" style="fill-rule:evenodd;clip-rule:evenodd;stroke-linejoin:round;stroke-miterlimit:2;"><g id="Solid"><g id="folder-opened" transform="matrix(1.06989,0,0,1.08705,-0.571227,-0.669665)"><path d="M1.767,3.808L1.767,10.967C1.767,12.28 2.832,13.345 4.144,13.345L12.189,13.345C13.501,13.345 14.567,12.28 14.567,10.967L14.567,5.826C14.567,4.928 13.837,4.199 12.939,4.199L8.861,4.199L8.861,3.808C8.861,2.91 8.132,2.181 7.234,2.181L3.394,2.181C2.496,2.181 1.767,2.91 1.767,3.808ZM8.813,5.118C8.486,5.101 8.204,4.92 8.05,4.656C7.993,4.565 7.952,4.455 7.935,4.324L7.926,4.199L7.926,3.808C7.926,3.422 7.62,3.101 7.234,3.101C7.234,3.101 3.394,3.101 3.394,3.101C3.007,3.101 2.701,3.422 2.701,3.808C2.701,3.808 2.701,10.967 2.701,10.967C2.701,11.768 3.344,12.425 4.144,12.425L12.189,12.425C12.989,12.425 13.632,11.768 13.632,10.967L13.632,5.826C13.632,5.44 13.326,5.119 12.939,5.119L8.861,5.119L8.813,5.118Z" style="fill:white;"/></g><g id="folder-opened-top" serif:id="folder-opened top" transform="matrix(0.952039,0,-0.176053,0.855534,2.95245,1.41953)"><path d="M14.846,7.177C14.846,6.255 14.174,5.507 13.346,5.507L2.725,5.507C1.897,5.507 1.225,6.255 1.225,7.177L1.225,12.185C1.225,13.106 1.897,13.855 2.725,13.855L13.346,13.855C14.174,13.855 14.846,13.106 14.846,12.185L14.846,7.177Z" style="fill:white;"/></g></g></svg>