<?xml version="1.0" encoding="UTF-8" standalone="no"?><!DOCTYPE svg PUBLIC "-//W3C//DTD SVG 1.1//EN" "http://www.w3.org/Graphics/SVG/1.1/DTD/svg11.dtd"><svg width="100%" height="100%" viewBox="0 0 16 16" version="1.1" xmlns="http://www.w3.org/2000/svg" xmlns:xlink="http://www.w3.org/1999/xlink" xml:space="preserve" xmlns:serif="http://www.serif.com/" style="fill-rule:evenodd;clip-rule:evenodd;stroke-linejoin:round;stroke-miterlimit:2;"><g id="Semiopaque"><g id="folder-opened-semiopaque"><g id="folder-closed-bg-semiopaque" transform="matrix(1.06989,0,0,1.08705,-0.571227,-0.669665)"><path d="M1.767,3.808L1.767,10.967C1.767,12.28 2.832,13.345 4.144,13.345L12.189,13.345C13.501,13.345 14.567,12.28 14.567,10.967L14.567,5.826C14.567,4.928 13.837,4.199 12.939,4.199L8.861,4.199L8.861,3.808C8.861,2.91 8.132,2.181 7.234,2.181L3.394,2.181C2.496,2.181 1.767,2.91 1.767,3.808Z" style="fill:white;fill-opacity:0.33;"/></g><g id="folder-opened-semiopaque1" serif:id="folder-opened-semiopaque" transform="matrix(1.06989,0,0,1.08705,-0.571227,-0.669665)"><path d="M1.767,3.808C1.767,2.91 2.496,2.181 3.394,2.181L7.234,2.181C8.132,2.181 8.861,2.91 8.861,3.808L8.861,4.199L12.939,4.199C13.837,4.199 14.567,4.928 14.567,5.826L14.567,10.967C14.567,12.28 13.501,13.345 12.189,13.345L4.144,13.345C2.832,13.345 1.767,12.28 1.767,10.967L1.767,3.808ZM13.632,5.826C13.632,5.44 13.326,5.119 12.939,5.119L8.861,5.119C8.345,5.119 7.926,4.707 7.926,4.199C7.926,4.196 7.926,4.193 7.926,4.19L7.926,3.819C7.926,3.815 7.926,3.812 7.926,3.808C7.926,3.422 7.62,3.101 7.234,3.101L3.394,3.101C3.007,3.101 2.701,3.422 2.701,3.808L2.701,10.967C2.701,11.768 3.344,12.425 4.144,12.425L12.189,12.425C12.989,12.425 13.632,11.768 13.632,10.967L13.632,5.826Z" style="fill:white;"/></g></g></g></svg>