<?xml version="1.0" encoding="UTF-8" standalone="no"?><!DOCTYPE svg PUBLIC "-//W3C//DTD SVG 1.1//EN" "http://www.w3.org/Graphics/SVG/1.1/DTD/svg11.dtd"><svg width="100%" height="100%" viewBox="0 0 16 16" version="1.1" xmlns="http://www.w3.org/2000/svg" xmlns:xlink="http://www.w3.org/1999/xlink" xml:space="preserve" xmlns:serif="http://www.serif.com/" style="fill-rule:evenodd;clip-rule:evenodd;stroke-linecap:round;stroke-linejoin:round;stroke-miterlimit:1.5;"><g id="Line"><g id="folder-closed" transform="matrix(1.06989,0,0,1.08705,-0.571227,-0.669665)"><path d="M1.767,3.808L1.767,10.967C1.767,12.28 2.832,13.345 4.144,13.345L12.189,13.345C13.501,13.345 14.567,12.28 14.567,10.967L14.567,5.826C14.567,4.928 13.837,4.199 12.939,4.199L8.861,4.199L8.861,3.808C8.861,2.91 8.132,2.181 7.234,2.181L3.394,2.181C2.496,2.181 1.767,2.91 1.767,3.808ZM8.813,5.118C8.486,5.101 8.204,4.92 8.05,4.656C7.993,4.565 7.952,4.455 7.935,4.324L7.926,4.199L7.926,3.808C7.926,3.422 7.62,3.101 7.234,3.101C7.234,3.101 3.394,3.101 3.394,3.101C3.007,3.101 2.701,3.422 2.701,3.808C2.701,3.808 2.701,10.967 2.701,10.967C2.701,11.768 3.344,12.425 4.144,12.425L12.189,12.425C12.989,12.425 13.632,11.768 13.632,10.967L13.632,5.826C13.632,5.44 13.326,5.119 12.939,5.119L8.861,5.119L8.813,5.118Z" style="fill:white;"/></g><g id="duplicated" transform="matrix(1,0,0,1,0.268418,-0.778504)"><g transform="matrix(1.17306,0,0,1.87384,-1.07555,-6.60599)"><path d="M5.377,9.356C5.377,9.356 5.466,8.454 6.65,8.05C7.833,7.646 9.426,7.89 9.426,7.89" style="fill:none;stroke:white;stroke-width:0.64px;"/></g><g transform="matrix(3.48674e-16,2.52795,-2.5284,3.48736e-16,32.7986,-7.18935)"><path d="M6.018,8.527L6.531,9.448L5.505,9.448L6.018,8.527Z" style="fill:white;stroke:white;stroke-width:0.08px;"/></g></g></g></svg>