<?xml version="1.0" encoding="UTF-8" standalone="no"?><!DOCTYPE svg PUBLIC "-//W3C//DTD SVG 1.1//EN" "http://www.w3.org/Graphics/SVG/1.1/DTD/svg11.dtd"><svg width="100%" height="100%" viewBox="0 0 16 16" version="1.1" xmlns="http://www.w3.org/2000/svg" xmlns:xlink="http://www.w3.org/1999/xlink" xml:space="preserve" xmlns:serif="http://www.serif.com/" style="fill-rule:evenodd;clip-rule:evenodd;stroke-linejoin:round;stroke-miterlimit:2;"><g id="Semiopaque"><g id="folder-opened-semiopaque-square"><g id="folder-closed-semiopaque-square" transform="matrix(1.69464,0,0,1.83794,-1.97862,-2.71528)"><path d="M6.643,2.398L1.913,2.398L1.913,8.981L9.998,8.981L9.998,2.398L9.998,3.506L6.643,3.506L6.643,2.398Z" style="fill:white;fill-opacity:0.33;"/></g><g id="folder-opened-semiopaque-square1" serif:id="folder-opened-semiopaque-square" transform="matrix(1.69464,0,0,1.83794,-1.97862,-2.71528)"><path d="M9.998,3.506L9.998,8.981L1.913,8.981L1.913,2.398L6.643,2.398L6.643,3.506L9.998,3.506ZM9.408,4.05L6.053,4.05L6.053,2.942L2.503,2.942C2.503,2.942 2.503,8.437 2.503,8.437L9.408,8.437L9.408,4.05Z" style="fill:white;"/></g></g></g></svg>