<?xml version="1.0" encoding="UTF-8" standalone="no"?><!DOCTYPE svg PUBLIC "-//W3C//DTD SVG 1.1//EN" "http://www.w3.org/Graphics/SVG/1.1/DTD/svg11.dtd"><svg width="100%" height="100%" viewBox="0 0 16 16" version="1.1" xmlns="http://www.w3.org/2000/svg" xmlns:xlink="http://www.w3.org/1999/xlink" xml:space="preserve" xmlns:serif="http://www.serif.com/" style="fill-rule:evenodd;clip-rule:evenodd;stroke-linejoin:round;stroke-miterlimit:2;"><g id="Outline"><path id="folder-opened-square" d="M1.681,13.263C1.392,13.185 1.247,12.984 1.253,12.64C1.262,12.158 1.249,4 1.253,3.614C1.256,3.371 1.425,3.109 1.768,3.113C1.965,3.115 8,3.113 8,3.113L9.343,4.667C9.343,4.667 13.999,4.631 14.516,4.636C14.763,4.639 14.975,4.813 14.972,5.123L14.971,6.131L16.003,6.131L15.046,13.302L1.675,13.302L1.681,13.263ZM13.971,6.131L13.971,5.637C12.613,5.642 9.35,5.667 9.35,5.667C9.057,5.669 8.778,5.542 8.586,5.321L7.543,4.113L2.252,4.114L2.255,8.958C2.256,10.372 2.256,11.677 2.255,12.298L2.818,12.297C4.631,12.295 9.043,12.3 11.893,12.302L13.973,12.302L14.171,12.302L14.861,7.131L13.971,7.131L13.971,6.131Z" style="fill:white;"/><g id="folder-opened-square-top" serif:id="folder-opened-square top" transform="matrix(0.981585,0,-0.114658,0.859039,2.06176,1.40023)"><path d="M14.846,5.507L14.846,13.855L1.225,13.855L1.225,5.507L14.846,5.507ZM13.818,6.671L2.252,6.671L2.252,12.69L13.818,12.69L13.818,6.671Z" style="fill:white;"/></g></g></svg>