<?xml version="1.0" encoding="UTF-8" standalone="no"?><!DOCTYPE svg PUBLIC "-//W3C//DTD SVG 1.1//EN" "http://www.w3.org/Graphics/SVG/1.1/DTD/svg11.dtd"><svg width="100%" height="100%" viewBox="0 0 16 16" version="1.1" xmlns="http://www.w3.org/2000/svg" xmlns:xlink="http://www.w3.org/1999/xlink" xml:space="preserve" xmlns:serif="http://www.serif.com/" style="fill-rule:evenodd;clip-rule:evenodd;stroke-linejoin:round;stroke-miterlimit:2;"><g id="Line"><path id="folder-opened" d="M14.988,11.616L15.823,7.559C15.962,6.886 15.611,6.32 15.013,6.17L15.013,5.664C15.013,4.687 14.233,3.895 13.272,3.895L8.909,3.895L8.909,3.47C8.909,2.494 8.129,1.701 7.168,1.701L3.06,1.701C2.099,1.701 1.319,2.494 1.319,3.47L1.319,11.252C1.319,12.679 2.459,13.837 3.862,13.837L12.47,13.837C13.752,13.837 14.814,12.871 14.988,11.616ZM8.858,4.893C8.508,4.876 8.206,4.679 8.042,4.392C7.981,4.292 7.936,4.173 7.919,4.031L7.909,3.895L7.909,3.47C7.909,3.05 7.582,2.701 7.168,2.701C7.168,2.701 3.06,2.701 3.06,2.701C2.646,2.701 2.319,3.05 2.319,3.47C2.319,3.47 2.319,11.252 2.319,11.252C2.319,12.123 3.006,12.837 3.862,12.837L12.47,12.837C13.251,12.837 13.892,12.242 13.998,11.479C14.001,11.457 14.004,11.436 14.009,11.415C14.009,11.415 14.844,7.358 14.844,7.358C14.863,7.262 14.855,7.162 14.77,7.14C14.325,7.028 14.013,6.629 14.013,6.17C14.013,6.17 14.013,5.664 14.013,5.664C14.013,5.244 13.686,4.895 13.272,4.895L8.909,4.895L8.858,4.893Z" style="fill:white;"/><g id="folder-opened-top" serif:id="folder-opened top" transform="matrix(0.952706,0,-0.188488,0.915963,3.01102,1.08673)"><path d="M14.846,7.177C14.846,6.255 14.127,5.507 13.241,5.507L2.83,5.507C1.944,5.507 1.225,6.255 1.225,7.177L1.225,12.185C1.225,13.106 1.944,13.855 2.83,13.855L13.241,13.855C14.127,13.855 14.846,13.106 14.846,12.185L14.846,7.177ZM13.774,6.957L13.774,11.965C13.774,12.4 13.444,12.763 13.025,12.763C13.025,12.763 2.614,12.763 2.614,12.763C2.431,12.763 2.296,12.595 2.296,12.405C2.296,12.405 2.296,7.397 2.296,7.397C2.296,6.961 2.627,6.599 3.046,6.599L13.457,6.599C13.64,6.599 13.774,6.766 13.774,6.957Z" style="fill:white;"/></g></g></svg>