<?xml version="1.0" encoding="UTF-8" standalone="no"?><!DOCTYPE svg PUBLIC "-//W3C//DTD SVG 1.1//EN" "http://www.w3.org/Graphics/SVG/1.1/DTD/svg11.dtd"><svg width="100%" height="100%" viewBox="0 0 16 16" version="1.1" xmlns="http://www.w3.org/2000/svg" xmlns:xlink="http://www.w3.org/1999/xlink" xml:space="preserve" xmlns:serif="http://www.serif.com/" style="fill-rule:evenodd;clip-rule:evenodd;stroke-linecap:square;stroke-miterlimit:1.5;"><g id="Outline"><g id="folder-dup-square"><g transform="matrix(1.69464,0,0,1.83794,-1.97862,-2.71528)"><path d="M1.913,5.479L1.913,2.398L6.643,2.398L6.643,3.506L9.998,3.506L9.998,8.981L4.884,8.981L4.884,8.437L9.408,8.437L9.408,4.05L6.053,4.05L6.053,2.942L2.503,2.942C2.503,2.942 2.503,4.179 2.503,5.479L1.913,5.479Z" style="fill:white;"/></g><g transform="matrix(1.24509,0,0,-0.989784,-0.883829,22.9293)"><path d="M5.769,13.783L1.725,13.783L1.725,9.232L2.528,9.232C2.528,11.906 2.528,12.773 2.528,12.773L5.769,12.773L5.769,13.783Z" style="fill:white;"/></g><g transform="matrix(1,0,0,1,-1.11905,0.332162)"><path d="M6.299,7.409L8,9.287L6.299,11.539" style="fill:none;stroke:white;stroke-width:1px;"/></g></g></g></svg>