<?xml version="1.0" encoding="UTF-8" standalone="no"?><!DOCTYPE svg PUBLIC "-//W3C//DTD SVG 1.1//EN" "http://www.w3.org/Graphics/SVG/1.1/DTD/svg11.dtd"><svg width="100%" height="100%" viewBox="0 0 16 16" version="1.1" xmlns="http://www.w3.org/2000/svg" xmlns:xlink="http://www.w3.org/1999/xlink" xml:space="preserve" xmlns:serif="http://www.serif.com/" style="fill-rule:evenodd;clip-rule:evenodd;stroke-linejoin:round;stroke-miterlimit:2;"><g id="Outline"><path id="folder-closed" d="M1.943,13.295C1.826,13.285 1.608,13.248 1.46,13.119C1.224,12.913 1.255,12.57 1.255,12.57L1.255,5.422L2.255,4.422L2.255,12.3L11.919,12.3L13.972,12.3L13.972,4.994L7.437,4.994C7.133,4.994 6.845,4.856 6.655,4.618L6.1,3.922C5.96,3.748 5.797,3.573 5.727,3.499L5.617,3.497C4.832,3.495 3.15,3.495 2.255,3.497L2.255,3.994L1.255,4.994L1.255,3.244C1.255,3.244 1.25,2.5 2.087,2.497C2.924,2.495 4.782,2.495 5.619,2.497C6.118,2.499 6.25,2.508 6.881,3.298L7.437,3.994L14.234,3.994C14.649,3.994 14.972,4.091 14.972,4.804L14.972,12.421C14.972,12.421 14.987,12.826 14.839,13.024C14.622,13.314 14.159,13.3 14.159,13.3L2.026,13.3C2.026,13.3 1.994,13.3 1.945,13.295C1.973,13.271 2,13.245 2.026,13.217L2.026,13.207C2,13.238 1.972,13.268 1.943,13.295ZM1.255,5.422L1.255,4.994L2.255,4.006L2.255,4.412L1.255,5.422ZM14.17,12.3L14.235,12.302C14.217,12.29 14.195,12.289 14.17,12.3ZM14.32,12.787L14.32,12.769L14.014,12.463L14.005,12.48L14.32,12.787ZM2.253,12.63C2.24,12.845 2.16,13.041 2.033,13.198L2.033,13.209C2.152,13.073 2.24,12.886 2.253,12.63Z" style="fill:white;"/></g></svg>