<?xml version="1.0" encoding="UTF-8" standalone="no"?><!DOCTYPE svg PUBLIC "-//W3C//DTD SVG 1.1//EN" "http://www.w3.org/Graphics/SVG/1.1/DTD/svg11.dtd"><svg width="100%" height="100%" viewBox="0 0 16 16" version="1.1" xmlns="http://www.w3.org/2000/svg" xmlns:xlink="http://www.w3.org/1999/xlink" xml:space="preserve" xmlns:serif="http://www.serif.com/" style="fill-rule:evenodd;clip-rule:evenodd;stroke-linejoin:round;stroke-miterlimit:2;"><g id="Semiopaque"><path id="folder-closed-semiopaque-square" d="M1.253,12.64C1.245,13.104 1.512,13.309 2.037,13.3C2.6,13.29 14.028,13.308 14.489,13.3C14.738,13.295 14.973,13.059 14.973,12.709C14.973,12.203 14.969,5.433 14.972,5.123C14.975,4.813 14.763,4.639 14.516,4.636C13.999,4.631 9.343,4.667 9.343,4.667L8,3.113C8,3.113 1.965,3.115 1.768,3.113C1.425,3.109 1.256,3.371 1.253,3.614C1.249,4 1.262,12.158 1.253,12.64Z" style="fill:white;"/></g></svg>