<?xml version="1.0" encoding="UTF-8" standalone="no"?><!DOCTYPE svg PUBLIC "-//W3C//DTD SVG 1.1//EN" "http://www.w3.org/Graphics/SVG/1.1/DTD/svg11.dtd"><svg width="100%" height="100%" viewBox="0 0 16 16" version="1.1" xmlns="http://www.w3.org/2000/svg" xmlns:xlink="http://www.w3.org/1999/xlink" xml:space="preserve" xmlns:serif="http://www.serif.com/" style="fill-rule:evenodd;clip-rule:evenodd;stroke-linecap:square;stroke-miterlimit:1.5;"><g id="Outline"><g id="folder-dup-square"><path d="M1.255,7.742C1.253,5.717 1.251,3.797 1.253,3.614C1.256,3.371 1.425,3.109 1.768,3.113C1.965,3.115 8,3.113 8,3.113L9.343,4.667C9.343,4.667 13.999,4.631 14.516,4.636C14.763,4.639 14.975,4.813 14.972,5.123C14.969,5.433 14.973,12.203 14.973,12.709C14.973,13.059 14.738,13.295 14.489,13.3C14.206,13.305 9.796,13.3 6.299,13.298L6.299,12.298C9.182,12.3 12.679,12.303 13.973,12.302C13.972,10.987 13.97,7.071 13.971,5.637C12.613,5.642 9.35,5.667 9.35,5.667C9.057,5.669 8.778,5.542 8.586,5.321L7.543,4.113L2.252,4.114C2.252,4.841 2.253,6.262 2.254,7.742L1.255,7.742Z" style="fill:white;"/><g transform="matrix(1.24509,0,0,-0.989784,-0.883829,22.9293)"><path d="M5.769,13.783L1.725,13.783L1.725,9.232L2.528,9.232C2.528,11.906 2.528,12.773 2.528,12.773L5.769,12.773L5.769,13.783Z" style="fill:white;"/></g><g transform="matrix(1,0,0,1,-1.11905,0.332162)"><path d="M6.299,7.409L8,9.287L6.299,11.539" style="fill:none;stroke:white;stroke-width:1px;"/></g></g></g></svg>