<?xml version="1.0" encoding="UTF-8" standalone="no"?><!DOCTYPE svg PUBLIC "-//W3C//DTD SVG 1.1//EN" "http://www.w3.org/Graphics/SVG/1.1/DTD/svg11.dtd"><svg width="100%" height="100%" viewBox="0 0 12 12" version="1.1" xmlns="http://www.w3.org/2000/svg" xmlns:xlink="http://www.w3.org/1999/xlink" xml:space="preserve" xmlns:serif="http://www.serif.com/" style="fill-rule:evenodd;clip-rule:evenodd;stroke-linejoin:round;stroke-miterlimit:2;"><g transform="matrix(1,0,0,1,-0.417914,4.90286)"><g transform="matrix(11.25,0,0,11.25,2.24979,5.61714)"><path d="M0.675,-0.27L0.675,-0.714L0.518,-0.714L0.518,-0.27C0.518,-0.217 0.507,-0.178 0.486,-0.153C0.465,-0.128 0.426,-0.115 0.37,-0.115C0.338,-0.115 0.313,-0.12 0.294,-0.129C0.275,-0.138 0.26,-0.149 0.249,-0.164C0.238,-0.178 0.231,-0.194 0.228,-0.213C0.225,-0.232 0.223,-0.251 0.223,-0.27L0.223,-0.714L0.066,-0.714L0.066,-0.27C0.066,-0.173 0.092,-0.101 0.146,-0.054C0.199,-0.007 0.273,0.016 0.37,0.016C0.465,0.016 0.54,-0.008 0.594,-0.055C0.648,-0.101 0.675,-0.173 0.675,-0.27Z" style="fill:white;fill-rule:nonzero;"/></g></g></svg>