<?xml version="1.0" encoding="UTF-8" standalone="no"?><!DOCTYPE svg PUBLIC "-//W3C//DTD SVG 1.1//EN" "http://www.w3.org/Graphics/SVG/1.1/DTD/svg11.dtd"><svg width="100%" height="100%" viewBox="0 0 22 40" version="1.1" xmlns="http://www.w3.org/2000/svg" xmlns:xlink="http://www.w3.org/1999/xlink" xml:space="preserve" xmlns:serif="http://www.serif.com/" style="fill-rule:evenodd;clip-rule:evenodd;stroke-linejoin:round;stroke-miterlimit:2;"><g id="button-control-bg-full-round-border" transform="matrix(1.48311,0,0,1.68414,-0.574003,-1.73461)"><path d="M7.804,2.535C9.973,2.535 14.31,7.187 14.31,12.916C14.31,18.645 9.973,23.296 7.804,23.296C5.635,23.296 1.297,18.645 1.297,12.916C1.297,7.187 5.635,2.535 7.804,2.535ZM7.804,3.278C7.58,3.278 7.328,3.374 7.05,3.518C6.474,3.816 5.846,4.33 5.235,5.003C3.612,6.788 2.14,9.669 2.14,12.916C2.14,16.163 3.612,19.044 5.235,20.829C5.846,21.502 6.474,22.016 7.05,22.314C7.328,22.458 7.58,22.554 7.804,22.554C8.028,22.554 8.279,22.458 8.557,22.314C9.134,22.016 9.761,21.502 10.373,20.829C11.996,19.044 13.468,16.163 13.468,12.916C13.468,9.669 11.996,6.788 10.373,5.003C9.761,4.33 9.134,3.816 8.557,3.518C8.279,3.374 8.028,3.278 7.804,3.278Z" style="fill:white;"/></g></svg>