<?xml version="1.0" encoding="UTF-8" standalone="no"?><!DOCTYPE svg PUBLIC "-//W3C//DTD SVG 1.1//EN" "http://www.w3.org/Graphics/SVG/1.1/DTD/svg11.dtd"><svg width="100%" height="100%" viewBox="0 0 22 40" version="1.1" xmlns="http://www.w3.org/2000/svg" xmlns:xlink="http://www.w3.org/1999/xlink" xml:space="preserve" xmlns:serif="http://www.serif.com/" style="fill-rule:evenodd;clip-rule:evenodd;stroke-linejoin:round;stroke-miterlimit:2;"><g id="button-control-bg-round-border" transform="matrix(1.24977,0,0,1.38103,-1.0814,-1.22814)"><path d="M17.388,7.311C17.388,4.766 15.105,2.7 12.292,2.7L7.042,2.7C4.229,2.7 1.945,4.766 1.945,7.311L1.945,23.431C1.945,25.977 4.229,28.043 7.042,28.043L12.292,28.043C15.105,28.043 17.388,25.977 17.388,23.431L17.388,7.311ZM16.388,7.311L16.388,23.431C16.388,25.477 14.553,27.138 12.292,27.138C12.292,27.138 7.042,27.138 7.042,27.138C4.781,27.138 2.946,25.477 2.946,23.431L2.946,7.311C2.946,5.266 4.781,3.605 7.042,3.605L12.292,3.605C14.553,3.605 16.388,5.266 16.388,7.311Z" style="fill:white;"/></g></svg>