<?xml version="1.0" encoding="UTF-8" standalone="no"?><!DOCTYPE svg PUBLIC "-//W3C//DTD SVG 1.1//EN" "http://www.w3.org/Graphics/SVG/1.1/DTD/svg11.dtd"><svg width="100%" height="100%" viewBox="0 0 22 40" version="1.1" xmlns="http://www.w3.org/2000/svg" xmlns:xlink="http://www.w3.org/1999/xlink" xml:space="preserve" xmlns:serif="http://www.serif.com/" style="fill-rule:evenodd;clip-rule:evenodd;stroke-linejoin:round;stroke-miterlimit:2;"><g id="icon-button-control-bg-round-single-border" transform="matrix(1.2951,0,0,1.38103,-1.51959,-1.22814)"><path d="M17.388,7.479C17.388,4.841 15.105,2.7 12.292,2.7L7.042,2.7C4.229,2.7 1.945,4.841 1.945,7.479L1.945,23.264C1.945,25.902 4.229,28.043 7.042,28.043L12.292,28.043C15.105,28.043 17.388,25.902 17.388,23.264L17.388,7.479ZM16.616,7.479L16.616,23.264C16.616,25.502 14.679,27.319 12.292,27.319C12.292,27.319 7.042,27.319 7.042,27.319C4.655,27.319 2.718,25.502 2.718,23.264L2.718,7.479C2.718,5.241 4.655,3.424 7.042,3.424L12.292,3.424C14.679,3.424 16.616,5.241 16.616,7.479Z" style="fill:white;"/></g></svg>