<?xml version="1.0" encoding="UTF-8" standalone="no"?><!DOCTYPE svg PUBLIC "-//W3C//DTD SVG 1.1//EN" "http://www.w3.org/Graphics/SVG/1.1/DTD/svg11.dtd"><svg width="100%" height="100%" viewBox="0 0 24 24" version="1.1" xmlns="http://www.w3.org/2000/svg" xmlns:xlink="http://www.w3.org/1999/xlink" xml:space="preserve" xmlns:serif="http://www.serif.com/" style="fill-rule:evenodd;clip-rule:evenodd;stroke-linejoin:round;stroke-miterlimit:2;"><g transform="matrix(1.05,0,0,1.05,12,12)"><g id="icon-regex" transform="matrix(1,0,0,1,-10,-10)"><clipPath id="_clip1"><rect x="0" y="0" width="20" height="20"/></clipPath><g clip-path="url(#_clip1)"><g transform="matrix(1.8157,0,0,1.8157,-8.88303,-7.2628)"><path d="M5,13.51C4.997,13.308 5.035,13.107 5.11,12.92C5.182,12.742 5.287,12.579 5.42,12.44C5.852,12.007 6.507,11.88 7.07,12.12C7.43,12.273 7.717,12.56 7.87,12.92C7.95,13.106 7.991,13.307 7.99,13.51C7.991,13.713 7.951,13.914 7.87,14.1C7.794,14.278 7.686,14.441 7.55,14.58C7.413,14.718 7.25,14.826 7.07,14.9C6.692,15.053 6.268,15.053 5.89,14.9C5.713,14.827 5.553,14.718 5.42,14.58C5.144,14.293 4.992,13.908 5,13.51ZM15.8,8.79L15.26,9.73L13.51,8.73L13.17,8.5C13.069,8.426 12.978,8.339 12.9,8.24C12.986,8.483 13.02,8.742 13,9L13,11L12,11L12,9C11.994,8.742 12.035,8.484 12.12,8.24C11.962,8.439 11.765,8.602 11.54,8.72L9.8,9.72L9.26,8.78L10.99,7.78C11.221,7.639 11.475,7.541 11.74,7.49C11.472,7.455 11.215,7.359 10.99,7.21L9.2,6.2L9.74,5.26L11.49,6.26L11.82,6.5C11.92,6.579 12.011,6.67 12.09,6.77C12.01,6.522 11.979,6.26 12,6L12,4L13,4L13,6C13.009,6.133 13.009,6.267 13,6.4C12.983,6.524 12.95,6.645 12.9,6.76C13.067,6.564 13.267,6.398 13.49,6.27L15.23,5.27L15.77,6.21L14.04,7.21L13.68,7.39C13.565,7.441 13.444,7.474 13.32,7.49C13.443,7.513 13.563,7.546 13.68,7.59C13.806,7.641 13.927,7.705 14.04,7.78L15.8,8.79Z" style="fill:white;fill-rule:nonzero;"/></g></g></g><g id="icon-regex1" serif:id="icon-regex"></g></g></svg>