<?xml version="1.0" encoding="UTF-8" standalone="no"?><!DOCTYPE svg PUBLIC "-//W3C//DTD SVG 1.1//EN" "http://www.w3.org/Graphics/SVG/1.1/DTD/svg11.dtd"><svg width="100%" height="100%" viewBox="0 0 22 40" version="1.1" xmlns="http://www.w3.org/2000/svg" xmlns:xlink="http://www.w3.org/1999/xlink" xml:space="preserve" xmlns:serif="http://www.serif.com/" style="fill-rule:evenodd;clip-rule:evenodd;stroke-linejoin:round;stroke-miterlimit:2;"><g id="icon-button-control-bg-round-left-border"><g transform="matrix(0.954545,0,0,1,1,0)"><path d="M22,36.5L22,37.5L7.774,37.5C3.483,37.5 0,34.017 0,29.726L0,10.274C0,5.983 3.483,2.5 7.774,2.5L22,2.5L22,3.5L7.774,3.5C4.035,3.5 1,6.535 1,10.274L1,29.726C1,33.465 4.035,36.5 7.774,36.5L22,36.5Z" style="fill:white;"/></g><g transform="matrix(0.0647548,0,0,1.30211,20.874,-0.0151078)"><rect x="1.945" y="2.7" width="15.443" height="25.343" style="fill:white;fill-opacity:0.5;"/></g></g></svg>