<?xml version="1.0" encoding="UTF-8" standalone="no"?><!DOCTYPE svg PUBLIC "-//W3C//DTD SVG 1.1//EN" "http://www.w3.org/Graphics/SVG/1.1/DTD/svg11.dtd"><svg width="100%" height="100%" viewBox="0 0 24 24" version="1.1" xmlns="http://www.w3.org/2000/svg" xmlns:xlink="http://www.w3.org/1999/xlink" xml:space="preserve" xmlns:serif="http://www.serif.com/" style="fill-rule:evenodd;clip-rule:evenodd;stroke-linejoin:round;stroke-miterlimit:2;"><g id="icon-buffer" transform="matrix(1,0,0,1,4.20422,-5.09003)"><g transform="matrix(1.15423,0,0,1.30646,-6.25152,7.13877)"><path d="M18.634,11.884L18.634,13.711C18.634,15.148 17.314,16.314 15.688,16.314L5.118,16.314C3.492,16.314 2.172,15.148 2.172,13.711L2.172,5.904C2.172,4.468 3.492,3.301 5.118,3.301L5.704,3.301L5.704,4.577L5.118,4.577C4.289,4.577 3.616,5.172 3.616,5.904L3.616,13.711C3.616,14.444 4.289,15.038 5.118,15.038L15.688,15.038C16.517,15.038 17.19,14.444 17.19,13.711L17.19,11.884L18.634,11.884Z" style="fill:white;fill-opacity:0.8;"/></g><g transform="matrix(1.15423,0,0,1.30646,-2.1747,1.35108)"><path d="M18.634,5.904L18.634,13.711C18.634,15.148 17.314,16.314 15.688,16.314L5.118,16.314C3.492,16.314 2.172,15.148 2.172,13.711L2.172,5.904C2.172,4.468 3.492,3.301 5.118,3.301L15.688,3.301C17.314,3.301 18.634,4.468 18.634,5.904ZM17.19,5.904C17.19,5.172 16.517,4.577 15.688,4.577L5.118,4.577C4.289,4.577 3.616,5.172 3.616,5.904L3.616,13.711C3.616,14.444 4.289,15.038 5.118,15.038L15.688,15.038C16.517,15.038 17.19,14.444 17.19,13.711L17.19,5.904Z" style="fill:white;"/></g><g transform="matrix(2.2688,0,0,1.10948,-25.2734,1.3604)"><rect x="12.829" y="8.808" width="5.289" height="1.532" style="fill:white;"/></g><g transform="matrix(2.2688,0,0,1.10948,-25.2734,5.72287)"><rect x="12.829" y="8.808" width="5.289" height="1.532" style="fill:white;"/></g></g></svg>