<?xml version="1.0" encoding="UTF-8" standalone="no"?><!DOCTYPE svg PUBLIC "-//W3C//DTD SVG 1.1//EN" "http://www.w3.org/Graphics/SVG/1.1/DTD/svg11.dtd"><svg width="100%" height="100%" viewBox="0 0 24 24" version="1.1" xmlns="http://www.w3.org/2000/svg" xmlns:xlink="http://www.w3.org/1999/xlink" xml:space="preserve" xmlns:serif="http://www.serif.com/" style="fill-rule:evenodd;clip-rule:evenodd;stroke-linejoin:round;stroke-miterlimit:2;"><g id="icon-wrap"><g transform="matrix(2.48309,0,0,1.10948,-26.4219,-0.699449)"><rect x="12.829" y="8.808" width="5.289" height="1.532" style="fill:white;"/></g><g transform="matrix(2.48309,0,0,1.10948,-26.4219,3.66303)"><rect x="12.829" y="8.808" width="5.289" height="1.532" style="fill:white;"/></g><g transform="matrix(9.64641e-17,1.57538,-1.34082,8.21012e-17,15.5908,-14.0526)"><path d="M11.396,2.932C11.467,2.807 11.586,2.732 11.713,2.732C11.84,2.732 11.959,2.807 12.03,2.932C12.493,3.748 13.354,5.265 13.857,6.152C13.935,6.29 13.943,6.466 13.876,6.612C13.81,6.757 13.681,6.848 13.541,6.848C12.573,6.848 10.853,6.848 9.886,6.848C9.745,6.848 9.616,6.757 9.55,6.612C9.484,6.466 9.491,6.29 9.569,6.152C10.072,5.265 10.933,3.748 11.396,2.932Z" style="fill:white;"/></g><path d="M14.045,3.5L18.41,3.5C20.943,3.5 23,5.557 23,8.09L23,15.91C23,18.443 20.943,20.5 18.41,20.5L5.59,20.5C3.057,20.5 1,18.443 1,15.91L1,8.09C1,5.557 3.057,3.5 5.59,3.5L7.606,3.5L7.606,5.167L5.59,5.167C3.977,5.167 2.667,6.477 2.667,8.09L2.667,15.91C2.667,17.523 3.977,18.833 5.59,18.833C5.59,18.833 18.41,18.833 18.41,18.833C20.023,18.833 21.333,17.523 21.333,15.91L21.333,8.09C21.333,6.477 20.023,5.167 18.41,5.167L14.045,5.167L14.045,3.5Z" style="fill:white;"/></g></svg>