<?xml version="1.0" encoding="UTF-8" standalone="no"?><!DOCTYPE svg PUBLIC "-//W3C//DTD SVG 1.1//EN" "http://www.w3.org/Graphics/SVG/1.1/DTD/svg11.dtd"><svg width="100%" height="100%" viewBox="0 0 22 40" version="1.1" xmlns="http://www.w3.org/2000/svg" xmlns:xlink="http://www.w3.org/1999/xlink" xml:space="preserve" xmlns:serif="http://www.serif.com/" style="fill-rule:evenodd;clip-rule:evenodd;stroke-linejoin:round;stroke-miterlimit:2;"><g id="icon-button-control-bg-full-round-single-border" transform="matrix(1.48311,0,0,1.58952,-0.574003,-0.512407)"><path d="M7.804,2.535C7.804,2.535 14.311,5.969 14.31,12.916C14.31,19.775 7.804,23.296 7.804,23.296C7.804,23.296 1.297,19.805 1.297,12.916C1.298,5.954 7.804,2.535 7.804,2.535ZM7.803,3.465C6.434,4.323 2.141,7.451 2.14,12.916C2.14,18.318 6.423,21.483 7.802,22.362C9.181,21.478 13.467,18.296 13.468,12.916C13.468,7.462 9.173,4.326 7.803,3.465Z" style="fill:white;"/></g></svg>