<?xml version="1.0" encoding="UTF-8" standalone="no"?><!DOCTYPE svg PUBLIC "-//W3C//DTD SVG 1.1//EN" "http://www.w3.org/Graphics/SVG/1.1/DTD/svg11.dtd"><svg width="100%" height="100%" viewBox="0 0 24 24" version="1.1" xmlns="http://www.w3.org/2000/svg" xmlns:xlink="http://www.w3.org/1999/xlink" xml:space="preserve" xmlns:serif="http://www.serif.com/" style="fill-rule:evenodd;clip-rule:evenodd;stroke-linejoin:round;stroke-miterlimit:2;"><g transform="matrix(1,0,0,1,12,12)"><g id="icon-case-sensitive" transform="matrix(1,0,0,1,-12,-12)"><g id="regular-expression" transform="matrix(1.37423,0,0,1.37423,-4.49691,-4.58348)"><path id="upper-case" d="M7.53,7L4,17L6.063,17L6.783,14.594L10.407,14.594L11.127,17L13.189,17L9.65,7L7.53,7ZM8.594,8.53L9.938,13L7.25,13L8.594,8.53Z" style="fill:white;fill-rule:nonzero;"/><path id="lower-case" d="M18.55,17L18.366,15.965L18.311,15.965C17.961,16.405 17.601,16.712 17.231,16.885C16.861,17.052 16.381,17.135 15.791,17.135C15.227,17.135 14.836,16.927 14.414,16.51C13.994,16.092 13.787,15.498 13.787,14.726C13.787,13.918 14.07,13.323 14.633,12.942C15.201,12.556 15.826,12.335 16.841,12.302L18.163,12.262L18.163,11.927C18.163,11.155 17.767,10.769 16.976,10.769C16.366,10.769 15.651,10.949 14.829,11.319L14.141,9.919C15.018,9.459 15.991,9.229 17.057,9.229C18.081,9.229 18.647,9.449 19.191,9.891C19.736,10.336 20.009,11.011 20.009,11.921L20.009,17L18.559,17M18.165,13.473L17.363,13.5C16.759,13.518 16.309,13.627 16.013,13.827C15.719,14.027 15.571,14.331 15.571,14.739C15.571,15.319 15.907,15.609 16.579,15.609C17.059,15.609 17.444,15.472 17.731,15.195C18.021,14.918 18.167,14.55 18.167,14.092L18.167,13.465" style="fill:white;fill-rule:nonzero;"/></g></g><g id="icon-case-sensitive1" serif:id="icon-case-sensitive"></g></g></svg>