<?xml version="1.0" encoding="UTF-8" standalone="no"?><!DOCTYPE svg PUBLIC "-//W3C//DTD SVG 1.1//EN" "http://www.w3.org/Graphics/SVG/1.1/DTD/svg11.dtd"><svg width="100%" height="100%" viewBox="0 0 24 24" version="1.1" xmlns="http://www.w3.org/2000/svg" xmlns:xlink="http://www.w3.org/1999/xlink" xml:space="preserve" xmlns:serif="http://www.serif.com/" style="fill-rule:evenodd;clip-rule:evenodd;stroke-linejoin:round;stroke-miterlimit:2;"><g id="icon-highlight"><g transform="matrix(0.988803,0,0,1.05185,0.0940236,-1.13155)"><rect x="2.383" y="21.205" width="19.316" height="1.236" style="fill:white;"/></g><g id="pen" transform="matrix(0.148438,0,0,0.148438,12,11)"><g transform="matrix(1,0,0,1,-64,-64)"><clipPath id="_clip1"><rect x="0" y="0" width="128" height="128"/></clipPath><g clip-path="url(#_clip1)"><g id="Pen"><path d="M123.315,16L112.003,4.688C108.878,1.563 104.78,0 100.687,0C96.594,0 92.499,1.563 89.374,4.688L20.684,73.375C17.563,76.499 8.004,88.585 8,92.679L0,127.999L35.312,119.999C35.312,119.999 51.5,110.436 54.625,107.311L123.316,38.624C129.562,32.375 129.562,22.242 123.315,16ZM32.316,112.476L10.606,117.398L15.801,94.445C15.875,94.117 15.93,93.781 15.961,93.453C15.977,93.406 16.02,93.336 16.039,93.289L34.128,111.383C33.523,111.749 32.914,112.116 32.316,112.476ZM48.984,101.64C48.078,102.499 44.945,104.617 41.117,107.054L20.391,86.327C22.516,83.413 24.883,80.483 26.34,79.03L78.062,27.312L100.687,49.937L48.984,101.64ZM117.659,32.969L106.343,44.282L83.718,21.656L95.034,10.343C96.542,8.828 98.55,8 100.687,8C102.824,8 104.835,8.836 106.347,10.344L117.66,21.657C119.172,23.165 120,25.173 120,27.313C119.999,29.445 119.167,31.461 117.659,32.969Z" style="fill:white;fill-rule:nonzero;"/></g></g></g></g></g></svg>