<?xml version="1.0" encoding="UTF-8" standalone="no"?><!DOCTYPE svg PUBLIC "-//W3C//DTD SVG 1.1//EN" "http://www.w3.org/Graphics/SVG/1.1/DTD/svg11.dtd"><svg width="100%" height="100%" viewBox="0 0 24 24" version="1.1" xmlns="http://www.w3.org/2000/svg" xmlns:xlink="http://www.w3.org/1999/xlink" xml:space="preserve" xmlns:serif="http://www.serif.com/" style="fill-rule:evenodd;clip-rule:evenodd;stroke-linejoin:round;stroke-miterlimit:2;"><g id="icon-buffer" transform="matrix(1,0,0,1,-0.2,1.25)"><g transform="matrix(1.12707,0,0,1.27572,-1.44842,-0.311662)"><path d="M18.634,6.815L18.634,12.8C18.634,14.739 16.852,16.314 14.657,16.314L6.149,16.314C3.954,16.314 2.172,14.739 2.172,12.8L2.172,6.815C2.172,4.876 3.954,3.301 6.149,3.301L14.657,3.301C16.852,3.301 18.634,4.876 18.634,6.815ZM17.155,6.815C17.155,5.597 16.036,4.608 14.657,4.608L6.149,4.608C4.77,4.608 3.651,5.597 3.651,6.815L3.651,12.8C3.651,14.018 4.77,15.007 6.149,15.007L14.657,15.007C16.036,15.007 17.155,14.018 17.155,12.8L17.155,6.815Z" style="fill:white;"/></g><g transform="matrix(2.21542,0,0,1.08337,-24.0036,-0.302566)"><rect x="12.829" y="8.808" width="5.289" height="1.532" style="fill:white;"/></g><g transform="matrix(2.21542,0,0,1.08337,-24.0036,3.95726)"><rect x="12.829" y="8.808" width="5.289" height="1.532" style="fill:white;"/></g><g transform="matrix(0.956084,0,0,1.07426,1.23504,-2.65548)"><path d="M4.817,5.355C5.652,3.879 6.923,3.65 8.617,3.65L16.938,3.65C19.133,3.65 21.57,5.869 21.584,7.823L21.584,14.6C21.584,16.135 21.033,16.412 20.056,17.147L20.117,15.946C20.395,15.481 20.347,15.441 20.347,14.6L20.347,8.252C20.347,6.909 18.259,4.862 16.894,4.862L8.617,4.866C7.615,4.866 7.284,4.943 6.939,5.336L4.817,5.355Z" style="fill:white;fill-opacity:0.7;"/></g><g transform="matrix(0.844899,0,0,0.965592,5.65513,-4.37064)"><path d="M4.817,5.355C5.652,3.879 6.923,3.65 8.617,3.65L16.938,3.65C19.133,3.65 21.57,5.869 21.584,7.823L21.584,14.6C21.584,16.135 21.033,16.412 20.056,17.147L20.117,15.946C20.395,15.481 20.347,15.441 20.347,14.6L20.347,8.252C20.347,6.909 18.259,4.862 16.894,4.862L8.617,4.866C7.615,4.866 7.284,4.943 6.939,5.336L4.817,5.355Z" style="fill:white;fill-opacity:0.7;"/></g></g></svg>