<?xml version="1.0" encoding="UTF-8" standalone="no"?><!DOCTYPE svg PUBLIC "-//W3C//DTD SVG 1.1//EN" "http://www.w3.org/Graphics/SVG/1.1/DTD/svg11.dtd"><svg width="100%" height="100%" viewBox="0 0 24 24" version="1.1" xmlns="http://www.w3.org/2000/svg" xmlns:xlink="http://www.w3.org/1999/xlink" xml:space="preserve" xmlns:serif="http://www.serif.com/" style="fill-rule:evenodd;clip-rule:evenodd;stroke-linejoin:round;stroke-miterlimit:2;"><g id="icon-preserve-case" transform="matrix(1.22886,0,0,1.34261,-1.80051,5.80024)"><path d="M11.992,9.527L9.804,9.527L8.934,7.25L4.951,7.25L4.129,9.527L1.995,9.527L5.876,-0.495L8.003,-0.495L11.992,9.527ZM8.288,5.562L6.915,1.843L5.57,5.562L8.288,5.562Z" style="fill:white;fill-rule:nonzero;"/><path d="M12.12,-0.495L16.103,-0.495C16.891,-0.495 17.479,-0.462 17.866,-0.396C18.254,-0.33 18.6,-0.192 18.906,0.018C19.212,0.227 19.467,0.506 19.671,0.855C19.875,1.204 19.977,1.595 19.977,2.027C19.977,2.497 19.851,2.928 19.599,3.319C19.348,3.711 19.007,4.005 18.576,4.201C19.184,4.379 19.65,4.682 19.977,5.11C20.303,5.539 20.466,6.042 20.466,6.621C20.466,7.077 20.361,7.52 20.15,7.951C19.939,8.381 19.651,8.726 19.287,8.983C18.922,9.241 18.472,9.399 17.938,9.458C17.602,9.495 16.794,9.517 15.511,9.527L12.12,9.527L12.12,-0.495ZM14.132,1.173L14.132,3.49L15.45,3.49C16.234,3.49 16.721,3.479 16.911,3.456C17.256,3.415 17.526,3.296 17.724,3.097C17.921,2.899 18.019,2.638 18.019,2.315C18.019,2.005 17.934,1.753 17.764,1.559C17.594,1.366 17.342,1.248 17.006,1.207C16.807,1.184 16.234,1.173 15.287,1.173L14.132,1.173ZM14.132,5.158L14.132,7.838L15.994,7.838C16.719,7.838 17.179,7.818 17.373,7.777C17.673,7.722 17.916,7.589 18.104,7.377C18.292,7.165 18.386,6.881 18.386,6.526C18.386,6.225 18.314,5.97 18.169,5.76C18.024,5.55 17.814,5.398 17.54,5.302C17.266,5.206 16.671,5.158 15.756,5.158L14.132,5.158Z" style="fill:white;fill-rule:nonzero;"/></g></svg>