<?xml version="1.0" encoding="UTF-8" standalone="no"?><!DOCTYPE svg PUBLIC "-//W3C//DTD SVG 1.1//EN" "http://www.w3.org/Graphics/SVG/1.1/DTD/svg11.dtd"><svg width="100%" height="100%" viewBox="0 0 24 24" version="1.1" xmlns="http://www.w3.org/2000/svg" xmlns:xlink="http://www.w3.org/1999/xlink" xml:space="preserve" xmlns:serif="http://www.serif.com/" style="fill-rule:evenodd;clip-rule:evenodd;stroke-linejoin:round;stroke-miterlimit:2;"><g id="icon-buffer" transform="matrix(1,0,0,1,-0.2,1.25)"><g transform="matrix(1.15423,0,0,1.30646,-1.50742,-0.813148)"><path d="M18.634,6.815C18.634,4.876 16.852,3.301 14.657,3.301L6.149,3.301C3.954,3.301 2.172,4.876 2.172,6.815L2.172,12.8C2.172,14.739 3.954,16.314 6.149,16.314L14.657,16.314C16.852,16.314 18.634,14.739 18.634,12.8L18.634,6.815ZM17.19,6.815L17.19,12.8C17.19,14.035 16.055,15.038 14.657,15.038C14.657,15.038 6.149,15.038 6.149,15.038C4.751,15.038 3.616,14.035 3.616,12.8L3.616,6.815C3.616,5.58 4.751,4.577 6.149,4.577L14.657,4.577C16.055,4.577 17.19,5.58 17.19,6.815Z" style="fill:white;"/></g><g transform="matrix(2.2688,0,0,1.10948,-24.6061,-0.803833)"><rect x="12.829" y="8.808" width="5.289" height="1.532" style="fill:white;"/></g><g transform="matrix(2.2688,0,0,1.10948,-24.6061,3.55864)"><rect x="12.829" y="8.808" width="5.289" height="1.532" style="fill:white;"/></g><g transform="matrix(1.1325,0,0,1.30646,2.29746,-3.31315)"><path d="M2.74,5.034C3.419,3.994 4.693,3.301 6.149,3.301L14.657,3.301C16.852,3.301 18.634,4.876 18.634,6.815L18.634,12.8C18.634,14.494 17.274,15.91 15.467,16.24L15.722,15.826C15.799,15.606 15.876,15.386 15.954,15.166L16.014,14.641C16.732,14.276 17.19,13.585 17.19,12.8L17.19,6.815C17.19,5.58 16.055,4.577 14.657,4.577L6.149,4.577C5.65,4.577 5.185,4.705 4.817,4.96L3.55,4.96C3.272,4.96 3.001,4.985 2.74,5.034Z" style="fill:white;"/></g></g></svg>