<?xml version="1.0" encoding="UTF-8" standalone="no"?><!DOCTYPE svg PUBLIC "-//W3C//DTD SVG 1.1//EN" "http://www.w3.org/Graphics/SVG/1.1/DTD/svg11.dtd"><svg width="100%" height="100%" viewBox="0 0 24 24" version="1.1" xmlns="http://www.w3.org/2000/svg" xmlns:xlink="http://www.w3.org/1999/xlink" xml:space="preserve" xmlns:serif="http://www.serif.com/" style="fill-rule:evenodd;clip-rule:evenodd;stroke-linejoin:round;stroke-miterlimit:2;"><g id="icon-gitignore" transform="matrix(1.08786,0,0,1.08786,-0.916965,-1.58239)"><g transform="matrix(0.677158,-0.677379,0.627411,0.627207,-2.66894,13.307)"><path d="M19.485,3.729C19.485,2.855 18.828,2.146 18.019,2.146L4.663,2.146C3.854,2.146 3.198,2.855 3.198,3.729L3.198,18.148C3.198,19.022 3.854,19.731 4.663,19.731L18.019,19.731C18.828,19.731 19.485,19.022 19.485,18.148L19.485,3.729ZM18.285,3.729L18.285,18.148C18.285,18.307 18.166,18.436 18.019,18.436C18.019,18.436 4.663,18.436 4.663,18.436C4.516,18.436 4.397,18.307 4.397,18.148C4.397,18.148 4.397,3.729 4.397,3.729C4.397,3.57 4.516,3.442 4.663,3.442L18.019,3.442C18.166,3.442 18.285,3.57 18.285,3.729Z" style="fill:white;"/></g><g transform="matrix(0.795605,0,0,0.785714,2.03362,1.63124)"><ellipse cx="12.389" cy="8.345" rx="2.074" ry="2.078" style="fill:white;"/></g><g transform="matrix(0.795605,0,0,0.785714,2.03362,10.4168)"><ellipse cx="12.389" cy="8.345" rx="2.074" ry="2.078" style="fill:white;"/></g><g transform="matrix(0.795605,0,0,0.785714,6.41592,6.03053)"><ellipse cx="12.389" cy="8.345" rx="2.074" ry="2.078" style="fill:white;"/></g><g transform="matrix(1.06068,0,0,1.54494,-0.753268,-6.09616)"><rect x="11.386" y="9.999" width="1.226" height="4.326" style="fill:white;"/></g><g transform="matrix(0.750011,-0.750011,0.604306,0.604306,-2.23875,12.0439)"><rect x="11.386" y="9.999" width="1.226" height="4.326" style="fill:white;"/></g><g transform="matrix(0.750011,-0.750011,0.378554,0.378554,-3.5635,10.6904)"><rect x="11.386" y="9.999" width="1.226" height="4.326" style="fill:white;"/></g></g></svg>