<?xml version="1.0" encoding="UTF-8" standalone="no"?><!DOCTYPE svg PUBLIC "-//W3C//DTD SVG 1.1//EN" "http://www.w3.org/Graphics/SVG/1.1/DTD/svg11.dtd"><svg width="100%" height="100%" viewBox="0 0 24 24" version="1.1" xmlns="http://www.w3.org/2000/svg" xmlns:xlink="http://www.w3.org/1999/xlink" xml:space="preserve" xmlns:serif="http://www.serif.com/" style="fill-rule:evenodd;clip-rule:evenodd;stroke-linejoin:round;stroke-miterlimit:2;"><g id="icon-whole-word" transform="matrix(1,0,0,1,-0.810831,0.154646)"><g transform="matrix(1,0,0,1,0.587775,-0.154646)"><path d="M2.823,18.584L1.242,18.584L1.242,21.899L23.204,21.899L23.204,18.584L21.623,18.584L21.623,20.084L2.823,20.084L2.823,18.584Z" style="fill:white;"/></g><g transform="matrix(1.18432,0,0,1.18432,-12.2404,-2.31314)"><path d="M18.55,17L18.366,15.965L18.311,15.965C17.961,16.405 17.601,16.712 17.231,16.885C16.861,17.052 16.381,17.135 15.791,17.135C15.227,17.135 14.836,16.927 14.414,16.51C13.994,16.092 13.787,15.498 13.787,14.726C13.787,13.918 14.07,13.323 14.633,12.942C15.201,12.556 15.826,12.335 16.841,12.302L18.163,12.262L18.163,11.927C18.163,11.155 17.767,10.769 16.976,10.769C16.366,10.769 15.651,10.949 14.829,11.319L14.141,9.919C15.018,9.459 15.991,9.229 17.057,9.229C18.081,9.229 18.647,9.449 19.191,9.891C19.736,10.336 20.009,11.011 20.009,11.921L20.009,17L18.559,17M18.165,13.473L17.363,13.5C16.759,13.518 16.309,13.627 16.013,13.827C15.719,14.027 15.571,14.331 15.571,14.739C15.571,15.319 15.907,15.609 16.579,15.609C17.059,15.609 17.444,15.472 17.731,15.195C18.021,14.918 18.167,14.55 18.167,14.092L18.167,13.465" style="fill:white;fill-rule:nonzero;"/></g><g transform="matrix(0.861807,0,0,0.861807,6.92252,13.2031)"><path d="M13.656,0.236C13.656,0.654 13.61,1.058 13.519,1.45C13.427,1.842 13.284,2.188 13.088,2.488C12.892,2.788 12.647,3.027 12.354,3.203C12.06,3.379 11.704,3.467 11.286,3.467C10.882,3.467 10.529,3.379 10.229,3.203C9.928,3.027 9.68,2.788 9.485,2.488C9.289,2.188 9.145,1.842 9.054,1.45C8.962,1.058 8.917,0.654 8.917,0.236C8.917,-0.195 8.962,-0.606 9.054,-0.998C9.145,-1.389 9.289,-1.735 9.485,-2.036C9.68,-2.336 9.928,-2.574 10.229,-2.751C10.529,-2.927 10.882,-3.015 11.286,-3.015C11.704,-3.015 12.06,-2.927 12.354,-2.751C12.647,-2.574 12.892,-2.336 13.088,-2.036C13.284,-1.735 13.427,-1.389 13.519,-0.998C13.61,-0.606 13.656,-0.195 13.656,0.236ZM6.234,-8.694L6.234,5.288L8.878,5.288L8.878,3.996L8.917,3.996C9.217,4.557 9.661,4.956 10.248,5.191C10.836,5.426 11.502,5.543 12.246,5.543C12.755,5.543 13.258,5.439 13.754,5.23C14.25,5.021 14.697,4.701 15.095,4.27C15.493,3.839 15.817,3.288 16.065,2.615C16.313,1.943 16.437,1.143 16.437,0.216C16.437,-0.711 16.313,-1.51 16.065,-2.183C15.817,-2.855 15.493,-3.407 15.095,-3.837C14.697,-4.268 14.25,-4.588 13.754,-4.797C13.258,-5.006 12.755,-5.11 12.246,-5.11C11.619,-5.11 11.015,-4.99 10.434,-4.748C9.853,-4.506 9.393,-4.125 9.054,-3.602L9.015,-3.602L9.015,-8.694L6.234,-8.694Z" style="fill:white;fill-rule:nonzero;"/></g></g></svg>