<?xml version="1.0" encoding="UTF-8" standalone="no"?><!DOCTYPE svg PUBLIC "-//W3C//DTD SVG 1.1//EN" "http://www.w3.org/Graphics/SVG/1.1/DTD/svg11.dtd"><svg width="100%" height="100%" viewBox="0 0 24 24" version="1.1" xmlns="http://www.w3.org/2000/svg" xmlns:xlink="http://www.w3.org/1999/xlink" xml:space="preserve" xmlns:serif="http://www.serif.com/" style="fill-rule:evenodd;clip-rule:evenodd;stroke-linecap:square;stroke-linejoin:round;stroke-miterlimit:1.5;"><g id="icon-in-selection"><path d="M3.672,20.05C4.382,20.435 5.196,20.653 6.059,20.653L9.362,20.653L9.362,19.108L6.059,19.108C5.462,19.108 4.899,18.957 4.407,18.691L3.727,18.323L2.992,19.683L3.672,20.05ZM12.78,19.108L10.908,19.108L10.908,20.653L12.78,20.653L12.78,19.108ZM1.031,11.706L1.031,15.625C1.031,16.231 1.139,16.811 1.335,17.349L1.601,18.075L3.052,17.545L2.787,16.819C2.651,16.446 2.577,16.044 2.577,15.625L2.577,11.706L1.031,11.706ZM20.807,17.61L22.565,17.61C22.74,17.204 22.863,16.77 22.926,16.317L23.031,15.551L21.501,15.34L21.395,16.106C21.319,16.659 21.112,17.171 20.807,17.61ZM22.93,7.714C22.796,6.694 22.355,5.77 21.704,5.037L21.191,4.459L20.036,5.486L20.549,6.063C21.096,6.678 21.428,7.488 21.428,8.375L21.428,13.895L22.973,13.895L22.973,7.714L22.93,7.714ZM2.576,8.375L2.577,8.375C2.577,7.331 3.037,6.395 3.765,5.756L4.346,5.246L3.327,4.085L2.746,4.594C1.695,5.516 1.031,6.869 1.031,8.375L1.804,9.148L1.031,8.387L1.031,10.161L2.577,10.161L2.576,8.375ZM18.538,3.382C18.344,3.359 18.146,3.347 17.945,3.347L13.041,3.347L13.041,4.892L17.945,4.892C18.085,4.892 18.222,4.9 18.357,4.916L19.125,5.007L19.306,3.472L18.538,3.382ZM11.496,3.347L5.315,3.347L5.315,4.892L11.496,4.892L11.496,3.347Z" style="fill:white;"/><g transform="matrix(0.643644,-0.417567,0.417567,0.643644,2.12698,11.691)"><path d="M10.255,16.596L7.567,17.412L12.067,5.412L16.567,17.412L13.894,16.619L13.894,22.356L10.255,22.356L10.255,16.596Z" style="fill:none;stroke:white;stroke-width:1.63px;"/></g></g></svg>