<?xml version="1.0" encoding="UTF-8" standalone="no"?><!DOCTYPE svg PUBLIC "-//W3C//DTD SVG 1.1//EN" "http://www.w3.org/Graphics/SVG/1.1/DTD/svg11.dtd"><svg width="100%" height="100%" viewBox="0 0 50 40" version="1.1" xmlns="http://www.w3.org/2000/svg" xmlns:xlink="http://www.w3.org/1999/xlink" xml:space="preserve" xmlns:serif="http://www.serif.com/" style="fill-rule:evenodd;clip-rule:evenodd;stroke-linejoin:round;stroke-miterlimit:2;"><g id="input-bg-overlay-full-round-border" transform="matrix(1.0804,0,0,0.98402,0.954739,2.95662)"><path d="M22.256,2.5C27.364,2.5 31.512,9.141 31.512,17.32C31.512,25.5 27.364,32.14 22.256,32.14C17.147,32.14 13,25.5 13,17.32C13,9.141 17.147,2.5 22.256,2.5ZM22.256,3.77C20.523,3.77 18.935,4.704 17.636,6.229C15.507,8.728 14.157,12.774 14.157,17.32C14.157,21.867 15.507,25.912 17.636,28.412C18.935,29.937 20.523,30.87 22.256,30.87C23.988,30.87 25.577,29.937 26.876,28.412C29.004,25.912 30.355,21.867 30.355,17.32C30.355,12.774 29.004,8.728 26.876,6.229C25.577,4.704 23.988,3.77 22.256,3.77Z" style="fill:white;"/></g></svg>