<?xml version="1.0" encoding="UTF-8" standalone="no"?><!DOCTYPE svg PUBLIC "-//W3C//DTD SVG 1.1//EN" "http://www.w3.org/Graphics/SVG/1.1/DTD/svg11.dtd"><svg width="100%" height="100%" viewBox="0 0 22 40" version="1.1" xmlns="http://www.w3.org/2000/svg" xmlns:xlink="http://www.w3.org/1999/xlink" xml:space="preserve" xmlns:serif="http://www.serif.com/" style="fill-rule:evenodd;clip-rule:evenodd;stroke-linejoin:round;stroke-miterlimit:2;"><g id="input-bg-panel-round-border" transform="matrix(1.27216,0,0,1.26831,-0.958812,-1.15179)"><path d="M16.986,8.966C16.986,5.607 14.267,2.879 10.917,2.879L7.883,2.879C4.534,2.879 1.815,5.607 1.815,8.966L1.815,24.388C1.815,27.748 4.534,30.475 7.883,30.475L10.917,30.475C14.267,30.475 16.986,27.748 16.986,24.388L16.986,8.966ZM16.003,8.966L16.003,24.388C16.003,27.204 13.724,29.489 10.917,29.489C10.917,29.489 7.883,29.489 7.883,29.489C5.076,29.489 2.797,27.204 2.797,24.388C2.797,24.388 2.797,8.966 2.797,8.966C2.797,6.151 5.076,3.865 7.883,3.865L10.917,3.865C13.724,3.865 16.003,6.151 16.003,8.966Z" style="fill:white;"/></g></svg>