<?xml version="1.0" encoding="UTF-8" standalone="no"?><!DOCTYPE svg PUBLIC "-//W3C//DTD SVG 1.1//EN" "http://www.w3.org/Graphics/SVG/1.1/DTD/svg11.dtd"><svg width="100%" height="100%" viewBox="0 0 40 30" version="1.1" xmlns="http://www.w3.org/2000/svg" xmlns:xlink="http://www.w3.org/1999/xlink" xml:space="preserve" xmlns:serif="http://www.serif.com/" style="fill-rule:evenodd;clip-rule:evenodd;stroke-linejoin:round;stroke-miterlimit:2;"><g transform="matrix(0.5,0,0,0.5,20,15)"><g id="input-search" transform="matrix(1,0,0,1,-40,-30)"><path d="M75.454,40.832L68.338,33.679C69.692,31.79 70.417,29.523 70.411,27.199C70.411,21.017 65.387,15.993 59.206,15.993C53.024,15.993 48,21.017 48,27.199C48,33.38 53.024,38.404 59.206,38.404C61.634,38.404 63.837,37.639 65.686,36.331L72.839,43.447C73.194,43.82 73.68,44.007 74.147,44.007C74.613,44.007 75.118,43.839 75.454,43.447C75.803,43.098 76,42.624 76,42.13C76,41.636 75.803,41.162 75.454,40.813L75.454,40.832ZM59.206,35.976C54.369,35.976 50.428,32.036 50.428,27.199C50.428,22.361 54.369,18.421 59.206,18.421C64.043,18.421 67.983,22.361 67.983,27.199C67.983,32.036 64.043,35.976 59.206,35.976Z" style="fill:white;"/></g><g id="input-search1" serif:id="input-search"></g></g></svg>