<?xml version="1.0" encoding="UTF-8" standalone="no"?><!DOCTYPE svg PUBLIC "-//W3C//DTD SVG 1.1//EN" "http://www.w3.org/Graphics/SVG/1.1/DTD/svg11.dtd"><svg width="100%" height="100%" viewBox="0 0 50 40" version="1.1" xmlns="http://www.w3.org/2000/svg" xmlns:xlink="http://www.w3.org/1999/xlink" xml:space="preserve" xmlns:serif="http://www.serif.com/" style="fill-rule:evenodd;clip-rule:evenodd;stroke-linejoin:round;stroke-miterlimit:2;"><g id="input-bg-switch-proj-round-border-selected" transform="matrix(0.956768,0,0,1.43485,-1.8958,-5.82762)"><path d="M41.313,11.568L41.313,24.432C41.313,28.543 36.307,31.881 30.142,31.881L26.08,31.881C19.915,31.881 14.909,28.543 14.909,24.432L14.909,11.568C14.909,7.457 19.915,4.12 26.08,4.12L30.142,4.12C36.307,4.12 41.313,7.457 41.313,11.568ZM38.264,11.568C38.264,8.579 34.625,6.152 30.142,6.152L26.08,6.152C21.597,6.152 17.958,8.579 17.958,11.568L17.958,24.432C17.958,27.421 21.597,29.848 26.08,29.848L30.142,29.848C34.625,29.848 38.264,27.421 38.264,24.432L38.264,11.568Z" style="fill:white;"/></g></svg>