<?xml version="1.0" encoding="UTF-8" standalone="no"?><!DOCTYPE svg PUBLIC "-//W3C//DTD SVG 1.1//EN" "http://www.w3.org/Graphics/SVG/1.1/DTD/svg11.dtd"><svg width="100%" height="100%" viewBox="0 0 50 40" version="1.1" xmlns="http://www.w3.org/2000/svg" xmlns:xlink="http://www.w3.org/1999/xlink" xml:space="preserve" xmlns:serif="http://www.serif.com/" style="fill-rule:evenodd;clip-rule:evenodd;stroke-linejoin:round;stroke-miterlimit:2;"><g id="input-bg-switch-proj-full-round-border-selected" transform="matrix(1.24247,0,0,1.13162,-2.65205,0.40011)"><path d="M22.256,-0.077C24.93,-0.077 27.431,1.247 29.435,3.601C32.076,6.701 33.859,11.679 33.859,17.32C33.859,22.961 32.076,27.939 29.435,31.04C27.431,33.393 24.93,34.718 22.256,34.718C19.582,34.718 17.081,33.393 15.076,31.04C12.435,27.939 10.653,22.961 10.653,17.32C10.653,11.679 12.435,6.701 15.076,3.601C17.081,1.247 19.582,-0.077 22.256,-0.077ZM22.256,2.5C17.147,2.5 13,9.141 13,17.32C13,25.5 17.147,32.14 22.256,32.14C27.364,32.14 31.512,25.5 31.512,17.32C31.512,9.141 27.364,2.5 22.256,2.5Z" style="fill:white;"/></g></svg>