<?xml version="1.0" encoding="UTF-8" standalone="no"?><!DOCTYPE svg PUBLIC "-//W3C//DTD SVG 1.1//EN" "http://www.w3.org/Graphics/SVG/1.1/DTD/svg11.dtd"><svg width="100%" height="100%" viewBox="0 0 22 40" version="1.1" xmlns="http://www.w3.org/2000/svg" xmlns:xlink="http://www.w3.org/1999/xlink" xml:space="preserve" xmlns:serif="http://www.serif.com/" style="fill-rule:evenodd;clip-rule:evenodd;stroke-linejoin:round;stroke-miterlimit:2;"><g id="input-bg-console-full-round-border" transform="matrix(1.45743,0,0,1.83941,-0.617528,-2.09853)"><path d="M7.971,2.5C10.178,2.5 14.591,5.457 14.593,12.014C14.594,18.531 10.178,21.528 7.971,21.528C5.764,21.528 1.351,18.512 1.35,12.014C1.349,5.482 5.764,2.5 7.971,2.5ZM7.971,3.18C7.248,3.18 6.27,3.619 5.314,4.431C3.669,5.83 2.207,8.325 2.208,12.014C2.208,15.684 3.671,18.183 5.316,19.588C6.271,20.404 7.248,20.848 7.971,20.848C8.695,20.848 9.673,20.407 10.628,19.593C12.274,18.192 13.736,15.695 13.735,12.014C13.734,8.311 12.273,5.819 10.628,4.425C9.673,3.615 8.695,3.18 7.971,3.18Z" style="fill:white;"/></g></svg>