<?xml version="1.0" encoding="UTF-8" standalone="no"?><!DOCTYPE svg PUBLIC "-//W3C//DTD SVG 1.1//EN" "http://www.w3.org/Graphics/SVG/1.1/DTD/svg11.dtd"><svg width="100%" height="100%" viewBox="0 0 22 40" version="1.1" xmlns="http://www.w3.org/2000/svg" xmlns:xlink="http://www.w3.org/1999/xlink" xml:space="preserve" xmlns:serif="http://www.serif.com/" style="fill-rule:evenodd;clip-rule:evenodd;stroke-linejoin:round;stroke-miterlimit:2;"><g id="input-bg-console-round-border" transform="matrix(1.45013,0,0,1.26831,-2.63181,-1.15179)"><path d="M16.986,9.818C16.986,5.988 14.267,2.879 10.917,2.879L7.883,2.879C4.534,2.879 1.815,5.988 1.815,9.818L1.815,23.537C1.815,27.366 4.534,30.475 7.883,30.475L10.917,30.475C14.267,30.475 16.986,27.366 16.986,23.537L16.986,9.818ZM16.124,9.818L16.124,23.537C16.124,26.822 13.791,29.489 10.917,29.489C10.917,29.489 7.883,29.489 7.883,29.489C5.01,29.489 2.677,26.822 2.677,23.537L2.677,9.818C2.677,6.532 5.01,3.865 7.883,3.865L10.917,3.865C13.791,3.865 16.124,6.532 16.124,9.818Z" style="fill:white;"/></g></svg>