<?xml version="1.0" encoding="UTF-8" standalone="no"?><!DOCTYPE svg PUBLIC "-//W3C//DTD SVG 1.1//EN" "http://www.w3.org/Graphics/SVG/1.1/DTD/svg11.dtd"><svg width="100%" height="100%" viewBox="0 0 50 40" version="1.1" xmlns="http://www.w3.org/2000/svg" xmlns:xlink="http://www.w3.org/1999/xlink" xml:space="preserve" xmlns:serif="http://www.serif.com/" style="fill-rule:evenodd;clip-rule:evenodd;stroke-linejoin:round;stroke-miterlimit:2;"><g id="input-bg-switch-proj-round-border" transform="matrix(0.807625,0,0,1.21118,2.29678,-1.80155)"><path d="M38.264,11.568L38.264,24.432C38.264,27.421 34.625,29.848 30.142,29.848L26.08,29.848C21.597,29.848 17.958,27.421 17.958,24.432L17.958,11.568C17.958,8.579 21.597,6.152 26.08,6.152L30.142,6.152C34.625,6.152 38.264,8.579 38.264,11.568ZM36.717,11.568C36.717,9.149 33.77,7.184 30.142,7.184L26.08,7.184C22.452,7.184 19.506,9.149 19.506,11.568L19.506,24.432C19.506,26.852 22.452,28.816 26.08,28.816L30.142,28.816C33.77,28.816 36.717,26.852 36.717,24.432L36.717,11.568Z" style="fill:white;"/></g></svg>