<?xml version="1.0" encoding="UTF-8" standalone="no"?><!DOCTYPE svg PUBLIC "-//W3C//DTD SVG 1.1//EN" "http://www.w3.org/Graphics/SVG/1.1/DTD/svg11.dtd"><svg width="100%" height="100%" viewBox="0 0 50 40" version="1.1" xmlns="http://www.w3.org/2000/svg" xmlns:xlink="http://www.w3.org/1999/xlink" xml:space="preserve" xmlns:serif="http://www.serif.com/" style="fill-rule:evenodd;clip-rule:evenodd;stroke-linejoin:round;stroke-miterlimit:2;"><g id="input-bg-switch-proj-round-border" transform="matrix(0.984909,0,0,1.47705,-2.68686,-6.58725)"><path d="M39.533,11.568C39.533,8.112 35.325,5.306 30.142,5.306C30.142,5.306 26.08,5.306 26.08,5.306C20.897,5.306 16.689,8.112 16.689,11.568L16.689,24.432C16.689,27.888 20.897,30.694 26.08,30.694L30.142,30.694C35.325,30.694 39.533,27.888 39.533,24.432L39.533,11.568ZM38.264,11.568C38.264,8.579 34.625,6.152 30.142,6.152L26.08,6.152C21.597,6.152 17.958,8.579 17.958,11.568L17.958,24.432C17.958,27.421 21.597,29.848 26.08,29.848L30.142,29.848C34.625,29.848 38.264,27.421 38.264,24.432L38.264,11.568Z" style="fill:white;"/></g></svg>