<?xml version="1.0" encoding="UTF-8" standalone="no"?><!DOCTYPE svg PUBLIC "-//W3C//DTD SVG 1.1//EN" "http://www.w3.org/Graphics/SVG/1.1/DTD/svg11.dtd"><svg width="100%" height="100%" viewBox="0 0 14 14" version="1.1" xmlns="http://www.w3.org/2000/svg" xmlns:xlink="http://www.w3.org/1999/xlink" xml:space="preserve" xmlns:serif="http://www.serif.com/" style="fill-rule:evenodd;clip-rule:evenodd;stroke-linejoin:round;stroke-miterlimit:2;"><g id="kind-container-bg-round-border" transform="matrix(1.18382,0,0,1.86749,1.00484,-1.80338)"><path d="M10.977,3.215C10.977,1.973 9.388,0.966 7.429,0.966L4.388,0.966C2.43,0.966 0.841,1.973 0.841,3.215L0.841,6.213C0.841,7.455 2.43,8.462 4.388,8.462L7.429,8.462C9.388,8.462 10.977,7.455 10.977,6.213L10.977,3.215ZM10.133,3.215L10.133,6.213C10.133,7.159 8.921,7.927 7.429,7.927L4.388,7.927C2.897,7.927 1.685,7.159 1.685,6.213L1.685,3.215C1.685,2.269 2.897,1.501 4.388,1.501L7.429,1.501C8.921,1.501 10.133,2.269 10.133,3.215Z" style="fill:white;"/></g></svg>