<?xml version="1.0" encoding="UTF-8" standalone="no"?><!DOCTYPE svg PUBLIC "-//W3C//DTD SVG 1.1//EN" "http://www.w3.org/Graphics/SVG/1.1/DTD/svg11.dtd"><svg width="100%" height="100%" viewBox="0 0 48 30" version="1.1" xmlns="http://www.w3.org/2000/svg" xmlns:xlink="http://www.w3.org/1999/xlink" xml:space="preserve" xmlns:serif="http://www.serif.com/" style="fill-rule:evenodd;clip-rule:evenodd;stroke-linejoin:round;stroke-miterlimit:2;"><path id="tab-digital-do-digital" d="M0.76,30C5.86,30 10,25.86 10,20.76L10,9.24C10,4.14 14.14,0 19.24,0L28.76,0C33.86,0 38,4.14 38,9.24L38,20.76C38,25.86 42.14,30 47.24,30L0.76,30ZM29.412,29.977C29.294,29.986 29.176,29.992 29.058,29.995C29.176,29.992 29.294,29.986 29.412,29.977ZM29.47,29.973L29.412,29.977L29.47,29.973L29.484,29.972L29.47,29.973ZM29.994,29.918C29.93,29.927 29.866,29.935 29.802,29.942C29.866,29.935 29.93,29.927 29.994,29.918ZM30.109,29.902L30.072,29.907L30.109,29.902ZM30.224,29.885L30.206,29.887L30.224,29.885ZM30.79,29.776L30.846,29.763L30.79,29.776ZM10.155,22.452C10.158,22.47 10.162,22.489 10.165,22.508C10.162,22.489 10.158,22.47 10.155,22.452ZM10.115,22.224L10.125,22.281C10.12,22.251 10.115,22.222 10.111,22.192L10.115,22.224ZM10.054,21.762L10.052,21.744L10.054,21.762ZM10.007,21.118C10.008,21.157 10.01,21.196 10.012,21.235L10.015,21.294C10.012,21.236 10.009,21.177 10.007,21.118ZM10.001,20.86C10.001,20.925 10.003,20.99 10.005,21.055C10.003,20.99 10.001,20.925 10.001,20.86Z" style="fill:white;"/></svg>