<?xml version="1.0" encoding="UTF-8" standalone="no"?><!DOCTYPE svg PUBLIC "-//W3C//DTD SVG 1.1//EN" "http://www.w3.org/Graphics/SVG/1.1/DTD/svg11.dtd"><svg width="100%" height="100%" viewBox="0 0 13 13" version="1.1" xmlns="http://www.w3.org/2000/svg" xmlns:xlink="http://www.w3.org/1999/xlink" xml:space="preserve" xmlns:serif="http://www.serif.com/" style="fill-rule:evenodd;clip-rule:evenodd;stroke-linejoin:round;stroke-miterlimit:2;"><g id="checkbox-round-border" transform="matrix(1.4404,0,0,1.66429,-1.14301,-1.18628)"><path d="M9.148,2.971C9.148,2.063 8.296,1.326 7.247,1.326L3.412,1.326C2.363,1.326 1.511,2.063 1.511,2.971L1.511,6.261C1.511,7.169 2.363,7.906 3.412,7.906L7.247,7.906C8.296,7.906 9.148,7.169 9.148,6.261L9.148,2.971ZM8.569,2.971L8.569,6.261C8.569,6.892 7.977,7.405 7.247,7.405L3.412,7.405C2.682,7.405 2.089,6.892 2.089,6.261L2.089,2.971C2.089,2.339 2.682,1.827 3.412,1.827L7.247,1.827C7.977,1.827 8.569,2.339 8.569,2.971Z" style="fill:white;"/></g></svg>