<?xml version="1.0" encoding="UTF-8" standalone="no"?><!DOCTYPE svg PUBLIC "-//W3C//DTD SVG 1.1//EN" "http://www.w3.org/Graphics/SVG/1.1/DTD/svg11.dtd"><svg width="100%" height="100%" viewBox="0 0 13 13" version="1.1" xmlns="http://www.w3.org/2000/svg" xmlns:xlink="http://www.w3.org/1999/xlink" xml:space="preserve" xmlns:serif="http://www.serif.com/" style="fill-rule:evenodd;clip-rule:evenodd;stroke-linejoin:round;stroke-miterlimit:2;"><g id="radio-button-bg-border" transform="matrix(1.26951,0,0,1.19014,-1.63943,-1.30886)"><path d="M6.411,1.94C8.803,1.94 10.744,4.011 10.744,6.561C10.744,9.112 8.803,11.183 6.411,11.183C4.02,11.183 2.079,9.112 2.079,6.561C2.079,4.011 4.02,1.94 6.411,1.94ZM6.411,2.64C8.44,2.64 10.087,4.397 10.087,6.561C10.087,8.725 8.44,10.482 6.411,10.482C4.383,10.482 2.736,8.725 2.736,6.561C2.736,4.397 4.383,2.64 6.411,2.64Z" style="fill:white;"/></g></svg>