<?xml version="1.0" encoding="UTF-8" standalone="no"?><!DOCTYPE svg PUBLIC "-//W3C//DTD SVG 1.1//EN" "http://www.w3.org/Graphics/SVG/1.1/DTD/svg11.dtd"><svg width="100%" height="100%" viewBox="0 0 20 22" version="1.1" xmlns="http://www.w3.org/2000/svg" xmlns:xlink="http://www.w3.org/1999/xlink" xml:space="preserve" xmlns:serif="http://www.serif.com/" style="fill-rule:evenodd;clip-rule:evenodd;stroke-linejoin:round;stroke-miterlimit:2;"><g id="sidebar-icon" serif:id="sidebar icon"><g transform="matrix(0.808182,0,0,1.03025,1.66277,-0.0786366)"><rect x="8.008" y="5.754" width="1.237" height="10.023" style="fill:white;"/></g><g id="border" transform="matrix(1.10732,0,0,1.30659,-0.151682,-1.52243)"><path d="M15.489,6.344C15.489,5.583 14.76,4.966 13.863,4.966L4.473,4.966C3.575,4.966 2.846,5.583 2.846,6.344L2.846,12.778C2.846,13.539 3.575,14.157 4.473,14.157L13.863,14.157C14.76,14.157 15.489,13.539 15.489,12.778L15.489,6.344ZM14.586,6.344L14.586,12.778C14.586,13.116 14.262,13.391 13.863,13.391L4.473,13.391C4.074,13.391 3.749,13.116 3.749,12.778C3.749,12.778 3.749,6.344 3.749,6.344C3.749,6.006 4.074,5.731 4.473,5.731L13.863,5.731C14.262,5.731 14.586,6.006 14.586,6.344Z" style="fill:white;"/></g><g transform="matrix(1,0,0,1.21607,0,-1.61226)"><rect x="4.819" y="7.462" width="2.709" height="0.822" style="fill:white;"/></g><g transform="matrix(1,0,0,1.21607,0,0.0431103)"><rect x="4.819" y="7.462" width="2.709" height="0.822" style="fill:white;"/></g><g transform="matrix(1,0,0,1.21607,0,1.69848)"><rect x="4.819" y="7.462" width="2.709" height="0.822" style="fill:white;"/></g><g transform="matrix(1,0,0,1.21607,0,3.35385)"><rect x="4.819" y="7.462" width="2.709" height="0.822" style="fill:white;"/></g></g></svg>