<?xml version="1.0" encoding="UTF-8" standalone="no"?><!DOCTYPE svg PUBLIC "-//W3C//DTD SVG 1.1//EN" "http://www.w3.org/Graphics/SVG/1.1/DTD/svg11.dtd"><svg width="100%" height="100%" viewBox="0 0 12 22" version="1.1" xmlns="http://www.w3.org/2000/svg" xmlns:xlink="http://www.w3.org/1999/xlink" xml:space="preserve" xmlns:serif="http://www.serif.com/" style="fill-rule:evenodd;clip-rule:evenodd;stroke-linecap:round;stroke-linejoin:round;stroke-miterlimit:1.5;"><g id="branch-icon"><g transform="matrix(1.36413,0,0,1.42933,-1.37673,-6.42575)"><path d="M3.547,13.549C4.276,13.549 4.867,14.113 4.867,14.808C4.867,15.503 4.276,16.067 3.547,16.067C2.819,16.067 2.228,15.503 2.228,14.808C2.228,14.113 2.819,13.549 3.547,13.549ZM3.547,14.132C3.939,14.132 4.256,14.435 4.256,14.808C4.256,15.181 3.939,15.484 3.547,15.484C3.156,15.484 2.839,15.181 2.839,14.808C2.839,14.435 3.156,14.132 3.547,14.132Z" style="fill:white;"/></g><g transform="matrix(1.36413,0,0,1.42933,-1.37673,-14.0654)"><path d="M3.547,13.549C4.276,13.549 4.867,14.113 4.867,14.808C4.867,15.503 4.276,16.067 3.547,16.067C2.819,16.067 2.228,15.503 2.228,14.808C2.228,14.113 2.819,13.549 3.547,13.549ZM3.547,14.132C3.939,14.132 4.256,14.435 4.256,14.808C4.256,15.181 3.939,15.484 3.547,15.484C3.156,15.484 2.839,15.181 2.839,14.808C2.839,14.435 3.156,14.132 3.547,14.132Z" style="fill:white;"/></g><g transform="matrix(1.36413,0,0,1.42933,4.61708,-14.0654)"><path d="M3.547,13.549C4.276,13.549 4.867,14.113 4.867,14.808C4.867,15.503 4.276,16.067 3.547,16.067C2.819,16.067 2.228,15.503 2.228,14.808C2.228,14.113 2.819,13.549 3.547,13.549ZM3.547,14.132C3.939,14.132 4.256,14.435 4.256,14.808C4.256,15.181 3.939,15.484 3.547,15.484C3.156,15.484 2.839,15.181 2.839,14.808C2.839,14.435 3.156,14.132 3.547,14.132Z" style="fill:white;"/></g><g transform="matrix(0.945883,0,0,0.945883,0.184669,0.723311)"><path d="M3.412,8.245L3.412,13.366" style="fill:none;stroke:white;stroke-width:0.88px;"/></g><path d="M3.429,11.966C3.429,11.966 3.531,10.784 4.992,10.705C6.686,10.614 8.233,10.654 8.233,10.654C8.233,10.654 9.498,10.64 9.493,9.175C9.49,8.2 9.482,8.551 9.482,8.551" style="fill:none;stroke:white;stroke-width:0.83px;"/></g></svg>