<?xml version="1.0" encoding="UTF-8" standalone="no"?><!DOCTYPE svg PUBLIC "-//W3C//DTD SVG 1.1//EN" "http://www.w3.org/Graphics/SVG/1.1/DTD/svg11.dtd"><svg width="100%" height="100%" viewBox="0 0 12 22" version="1.1" xmlns="http://www.w3.org/2000/svg" xmlns:xlink="http://www.w3.org/1999/xlink" xml:space="preserve" xmlns:serif="http://www.serif.com/" style="fill-rule:evenodd;clip-rule:evenodd;stroke-linecap:round;stroke-linejoin:round;stroke-miterlimit:1.5;"><g id="branch-icon"><g transform="matrix(0.92746,0,0,0.92746,5.25065,2.32464)"><ellipse cx="3.324" cy="6.928" rx="1.536" ry="1.546" style="fill:none;stroke:white;stroke-width:0.67px;"/></g><g transform="matrix(0.92746,0,0,0.92746,0.375882,0.658503)"><ellipse cx="3.324" cy="6.928" rx="1.536" ry="1.546" style="fill:none;stroke:white;stroke-width:0.67px;"/></g><g transform="matrix(0.92746,0,0,0.92746,0.375882,8.5085)"><ellipse cx="3.324" cy="6.928" rx="1.536" ry="1.546" style="fill:none;stroke:white;stroke-width:0.67px;"/></g><g transform="matrix(1,0,0,1.09232,0,-1.40666)"><path d="M3.427,9.181L3.427,13.573" style="fill:none;stroke:white;stroke-width:0.6px;"/></g><path d="M3.967,13.509C3.967,13.509 4.299,13.04 4.824,12.766C5.563,12.38 6.693,12.507 7.588,11.834C8.303,11.296 8.423,10.249 8.423,10.249" style="fill:none;stroke:white;stroke-width:0.63px;"/></g></svg>